<svg xmlns="http://www.w3.org/2000/svg" xmlns:xlink="http://www.w3.org/1999/xlink" width="3305" height="872" xml:space="preserve" overflow="hidden"><g transform="translate(-606 -750)"><path d="M606 1253.6C606 1233.39 622.386 1217 642.599 1217L3874.4 1217C3894.61 1217 3911 1233.39 3911 1253.6L3911 1546.4C3911 1566.61 3894.61 1583 3874.4 1583L642.599 1583C622.386 1583 606 1566.61 606 1546.4Z" fill="#CDDED5" fill-rule="evenodd"/><text font-family="Aptos,Aptos_MSFontService,sans-serif" font-weight="400" font-size="83" transform="matrix(1 0 0 1 691.324 1367)">Supporting information</text><text font-family="Aptos,Aptos_MSFontService,sans-serif" font-weight="400" font-size="50" transform="matrix(1 0 0 1 680.622 1431)">Secondary information used for further </text><text font-family="Aptos,Aptos_MSFontService,sans-serif" font-weight="400" font-size="50" transform="matrix(1 0 0 1 839.893 1487)">analysis or </text><text font-family="Aptos,Aptos_MSFontService,sans-serif" font-weight="400" font-size="50" transform="matrix(1 0 0 1 1083.41 1487)">assessment</text><text font-family="Aptos,Aptos_MSFontService,sans-serif" font-weight="400" font-size="50" transform="matrix(1 0 0 1 1348.41 1487)">.</text><path d="M606 825.701C606 805.431 622.431 789 642.701 789L3874.3 789C3894.57 789 3911 805.431 3911 825.701L3911 1119.3C3911 1139.57 3894.57 1156 3874.3 1156L642.701 1156C622.431 1156 606 1139.57 606 1119.3Z" fill="#CDDED5" fill-rule="evenodd"/><text font-family="Aptos,Aptos_MSFontService,sans-serif" font-weight="400" font-size="73" transform="matrix(1 0 0 1 668.293 912)">Core Structural Information</text><text font-family="Aptos,Aptos_MSFontService,sans-serif" font-weight="400" font-size="48" transform="matrix(1 0 0 1 704.409 972)">This is the primary information source, </text><text font-family="Aptos,Aptos_MSFontService,sans-serif" font-weight="400" font-size="48" transform="matrix(1 0 0 1 658.026 1025)">should provide an engineer with 90% of the </text><text font-family="Aptos,Aptos_MSFontService,sans-serif" font-weight="400" font-size="48" transform="matrix(1 0 0 1 867.003 1078)">information they need.</text><path d="M2492.5 850.1C2492.5 833.2 2506.2 819.5 2523.1 819.5L2919.9 819.5C2936.8 819.5 2950.5 833.2 2950.5 850.1L2950.5 1094.9C2950.5 1111.8 2936.8 1125.5 2919.9 1125.5L2523.1 1125.5C2506.2 1125.5 2492.5 1111.8 2492.5 1094.9Z" stroke="#FFFFFF" stroke-width="6.875" stroke-miterlimit="8" fill="#269C6F" fill-rule="evenodd"/><text fill="#FFFFFF" font-family="Aptos,Aptos_MSFontService,sans-serif" font-weight="400" font-size="73" transform="matrix(1 0 0 1 2554.24 951)">BIM Model </text><text fill="#FFFFFF" font-family="Aptos,Aptos_MSFontService,sans-serif" font-weight="400" font-size="73" transform="matrix(1 0 0 1 2645.49 1032)">(IFC)</text><path d="M2721.31 1125.5 2721.31 1186.61 1827.5 1186.61 1827.5 1247.73" stroke="#1C7B57" stroke-width="6.875" stroke-miterlimit="8" fill="none" fill-rule="evenodd"/><path d="M1598.5 1278.1C1598.5 1261.2 1612.2 1247.5 1629.1 1247.5L2025.9 1247.5C2042.8 1247.5 2056.5 1261.2 2056.5 1278.1L2056.5 1522.9C2056.5 1539.8 2042.8 1553.5 2025.9 1553.5L1629.1 1553.5C1612.2 1553.5 1598.5 1539.8 1598.5 1522.9Z" stroke="#FFFFFF" stroke-width="6.875" stroke-miterlimit="8" fill="#4BA486" fill-rule="evenodd"/><text fill="#FFFFFF" font-family="Aptos,Aptos_MSFontService,sans-serif" font-weight="400" font-size="73" transform="matrix(1 0 0 1 1680.44 1379)">Drawings </text><text fill="#FFFFFF" font-family="Aptos,Aptos_MSFontService,sans-serif" font-weight="400" font-size="73" transform="matrix(1 0 0 1 1612.77 1460)">(DXF &amp; PDF)</text><path d="M2721.44 1125.5 2721.44 1186.61 2423.5 1186.61 2423.5 1247.73" stroke="#1C7B57" stroke-width="6.875" stroke-miterlimit="8" fill="none" fill-rule="evenodd"/><path d="M2194.5 1278.1C2194.5 1261.2 2208.2 1247.5 2225.1 1247.5L2621.9 1247.5C2638.8 1247.5 2652.5 1261.2 2652.5 1278.1L2652.5 1522.9C2652.5 1539.8 2638.8 1553.5 2621.9 1553.5L2225.1 1553.5C2208.2 1553.5 2194.5 1539.8 2194.5 1522.9Z" stroke="#FFFFFF" stroke-width="6.875" stroke-miterlimit="8" fill="#255243" fill-rule="evenodd"/><text fill="#FFFFFF" font-family="Aptos,Aptos_MSFontService,sans-serif" font-weight="400" font-size="73" transform="matrix(1 0 0 1 2238.68 1379)">Certificates</text><text fill="#FFFFFF" font-family="Aptos,Aptos_MSFontService,sans-serif" font-weight="400" font-size="73" transform="matrix(1 0 0 1 2205.13 1460)">(CSV &amp; PDF)</text><path d="M2721.5 1125.5 2721.5 1186.61 3019.44 1186.61 3019.44 1247.73" stroke="#1C7B57" stroke-width="6.875" stroke-miterlimit="8" fill="none" fill-rule="evenodd"/><path d="M2790.5 1278.1C2790.5 1261.2 2804.2 1247.5 2821.1 1247.5L3217.9 1247.5C3234.8 1247.5 3248.5 1261.2 3248.5 1278.1L3248.5 1522.9C3248.5 1539.8 3234.8 1553.5 3217.9 1553.5L2821.1 1553.5C2804.2 1553.5 2790.5 1539.8 2790.5 1522.9Z" stroke="#FFFFFF" stroke-width="6.875" stroke-miterlimit="8" fill="#255243" fill-rule="evenodd"/><text fill="#FFFFFF" font-family="Aptos,Aptos_MSFontService,sans-serif" font-weight="400" font-size="73" transform="matrix(1 0 0 1 2905.57 1339)">Record </text><text fill="#FFFFFF" font-family="Aptos,Aptos_MSFontService,sans-serif" font-weight="400" font-size="73" transform="matrix(1 0 0 1 2917.4 1420)">Tables</text><text fill="#FFFFFF" font-family="Aptos,Aptos_MSFontService,sans-serif" font-weight="400" font-size="73" transform="matrix(1 0 0 1 2801.01 1501)">(CSV &amp; PDF)</text><path d="M2721.5 1125.5 2721.5 1186.61 3615.31 1186.61 3615.31 1247.73" stroke="#1C7B57" stroke-width="6.875" stroke-miterlimit="8" fill="none" fill-rule="evenodd"/><path d="M3386.5 1278.1C3386.5 1261.2 3400.2 1247.5 3417.1 1247.5L3813.9 1247.5C3830.8 1247.5 3844.5 1261.2 3844.5 1278.1L3844.5 1522.9C3844.5 1539.8 3830.8 1553.5 3813.9 1553.5L3417.1 1553.5C3400.2 1553.5 3386.5 1539.8 3386.5 1522.9Z" stroke="#FFFFFF" stroke-width="6.875" stroke-miterlimit="8" fill="#0F211B" fill-rule="evenodd"/><text fill="#FFFFFF" font-family="Aptos,Aptos_MSFontService,sans-serif" font-weight="400" font-size="73" transform="matrix(1 0 0 1 3447.02 1339)">Inspection </text><text fill="#FFFFFF" font-family="Aptos,Aptos_MSFontService,sans-serif" font-weight="400" font-size="73" transform="matrix(1 0 0 1 3490.67 1420)">Reports </text><text fill="#FFFFFF" font-family="Aptos,Aptos_MSFontService,sans-serif" font-weight="400" font-size="73" transform="matrix(1 0 0 1 3400.72 1501)">(XML &amp; PDF)</text></g></svg>