<svg width="9461" height="1984" xmlns="http://www.w3.org/2000/svg" xmlns:xlink="http://www.w3.org/1999/xlink" xml:space="preserve" overflow="hidden"><defs><clipPath id="clip0"><rect x="-2841" y="933" width="9461" height="1984"/></clipPath><linearGradient x1="-2841" y1="2545" x2="6400" y2="2545" gradientUnits="userSpaceOnUse" spreadMethod="reflect" id="fill1"><stop offset="0" stop-color="#F6F5F8" stop-opacity="0"/><stop offset="0.27" stop-color="#A19DB0"/><stop offset="0.62" stop-color="#6D6784"/><stop offset="1" stop-color="#544D6F"/></linearGradient></defs><g clip-path="url(#clip0)" transform="translate(2841 -933)"><path d="M5373.5 1308.19 5435.38 1308.19 5435.38 1328.81 5373.5 1328.81ZM5456 1308.19 5517.88 1308.19 5517.88 1328.81 5456 1328.81ZM5538.5 1308.19 5580.21 1308.19 5580.21 1328.81 5538.5 1328.81ZM5373.5 1339.13C5362.11 1339.13 5352.88 1329.89 5352.88 1318.5 5352.88 1307.11 5362.11 1297.88 5373.5 1297.88 5384.89 1297.88 5394.12 1307.11 5394.12 1318.5 5394.12 1329.89 5384.89 1339.13 5373.5 1339.13ZM5569.89 1266.94 5631.77 1318.5 5569.89 1370.06Z" fill="#561D3B"/><path d="M6026.81 1741.06 6026.81 1802.94 6006.19 1802.94 6006.19 1741.06ZM6026.81 1823.56 6026.81 1885.44 6006.19 1885.44 6006.19 1823.56ZM6026.81 1906.06 6026.81 1967.94 6006.19 1967.94 6006.19 1906.06ZM6026.81 1988.56 6026.81 2050.44 6006.19 2050.44 6006.19 1988.56ZM6026.81 2071.06 6026.81 2132.94 6006.19 2132.94 6006.19 2071.06ZM6026.81 2153.56 6026.81 2173.6 6006.19 2173.6 6006.19 2153.56ZM5964.94 1751.38 6016.5 1689.5 6068.06 1751.38ZM6037.13 2173.6C6037.13 2184.99 6027.89 2194.22 6016.5 2194.22 6005.11 2194.22 5995.88 2184.99 5995.88 2173.6 5995.88 2162.2 6005.11 2152.97 6016.5 2152.97 6027.89 2152.97 6037.13 2162.2 6037.13 2173.6Z" fill="#561D3B"/><path d="M1.44103e-05-10.3125 61.875-10.3124 61.875 10.3126-1.44103e-05 10.3125ZM82.5-10.3124 144.375-10.3123 144.375 10.3127 82.5 10.3126ZM165-10.3123 206.705-10.3122 206.705 10.3128 165 10.3127ZM-2.88206e-05 20.625C-11.3909 20.625-20.625 11.3908-20.625-2.88206e-05-20.625-11.3909-11.3908-20.625 2.88206e-05-20.625 11.3909-20.625 20.625-11.3908 20.625 2.88206e-05 20.625 11.3909 11.3908 20.625-2.88206e-05 20.625ZM196.392-51.5622 258.267 0.000360892 196.392 51.5628Z" fill="#561D3B" transform="matrix(1 0 0 -1 94.5 1318.5)"/><path d="M747.812 1754.06 747.812 1815.94 727.187 1815.94 727.187 1754.06ZM747.812 1836.56 747.812 1898.44 727.187 1898.44 727.187 1836.56ZM747.812 1919.06 747.812 1980.94 727.188 1980.94 727.188 1919.06ZM747.813 2001.56 747.813 2063.44 727.188 2063.44 727.188 2001.56ZM747.813 2084.06 747.813 2145.94 727.188 2145.94 727.188 2084.06ZM747.813 2166.56 747.813 2173.8 727.188 2173.8 727.188 2166.56ZM685.937 1764.38 737.5 1702.5 789.062 1764.38ZM758.125 2173.8C758.125 2185.19 748.891 2194.42 737.5 2194.42 726.109 2194.42 716.875 2185.19 716.875 2173.8 716.875 2162.41 726.109 2153.17 737.5 2153.17 748.891 2153.17 758.125 2162.41 758.125 2173.8Z" fill="#561D3B"/><path d="M-2841 1317.5C-2841 1105.15-2668.85 933-2456.5 933-2244.15 933-2072 1105.15-2072 1317.5-2072 1529.85-2244.15 1702-2456.5 1702-2668.85 1702-2841 1529.85-2841 1317.5Z" fill="#544D6F" fill-rule="evenodd"/><text fill="#FFFFFF" font-family="Arial,Arial_MSFontService,sans-serif" font-weight="400" font-size="64" transform="matrix(1 0 0 1 -2668.54 1341)">Start of Project</text><path d="M-1814 1191.17C-1814 1156.28-1785.72 1128-1750.83 1128L-1052.17 1128C-1017.28 1128-989 1156.28-989 1191.17L-989 1443.83C-989 1478.72-1017.28 1507-1052.17 1507L-1750.83 1507C-1785.72 1507-1814 1478.72-1814 1443.83Z" fill="#544D6F" fill-rule="evenodd"/><text fill="#FFFFFF" font-family="Arial,Arial_MSFontService,sans-serif" font-weight="400" font-size="64" transform="matrix(1 0 0 1 -1748.2 1303)">Designer records design </text><text fill="#FFFFFF" font-family="Arial,Arial_MSFontService,sans-serif" font-weight="400" font-size="64" transform="matrix(1 0 0 1 -1755.37 1380)">information in BIM model</text><path d="M-731 1191.17C-731 1156.28-702.719 1128-667.832 1128L30.8319 1128C65.7186 1128 93.9998 1156.28 93.9998 1191.17L93.9998 1443.83C93.9998 1478.72 65.7186 1507 30.8319 1507L-667.832 1507C-702.719 1507-731 1478.72-731 1443.83Z" fill="#544D6F" fill-rule="evenodd"/><text fill="#FFFFFF" font-family="Arial,Arial_MSFontService,sans-serif" font-weight="400" font-size="64" transform="matrix(1 0 0 1 -634.864 1303)">Designer issues “Final </text><text fill="#FFFFFF" font-family="Arial,Arial_MSFontService,sans-serif" font-weight="400" font-size="64" transform="matrix(1 0 0 1 -650.906 1380)">Construction Drawings”</text><path d="M352 1317.5C352 1105.15 524.146 933 736.5 933 948.853 933 1121 1105.15 1121 1317.5 1121 1529.85 948.853 1702 736.5 1702 524.146 1702 352 1529.85 352 1317.5Z" fill="#544D6F" fill-rule="evenodd"/><text fill="#FFFFFF" font-family="Arial,Arial_MSFontService,sans-serif" font-weight="400" font-size="64" transform="matrix(1 0 0 1 603.431 1187)">Drawings </text><text fill="#FFFFFF" font-family="Arial,Arial_MSFontService,sans-serif" font-weight="400" font-size="64" transform="matrix(1 0 0 1 532.389 1264)">issued; signed </text><text fill="#FFFFFF" font-family="Arial,Arial_MSFontService,sans-serif" font-weight="400" font-size="64" transform="matrix(1 0 0 1 583.952 1341)">BIM model </text><text fill="#FFFFFF" font-family="Arial,Arial_MSFontService,sans-serif" font-weight="400" font-size="64" transform="matrix(1 0 0 1 552.166 1418)">marks end of </text><text fill="#FFFFFF" font-family="Arial,Arial_MSFontService,sans-serif" font-weight="400" font-size="64" transform="matrix(1 0 0 1 555.604 1495)">design stage</text><path d="M1380 1191.17C1380 1156.28 1408.28 1128 1443.17 1128L2141.83 1128C2176.72 1128 2205 1156.28 2205 1191.17L2205 1443.83C2205 1478.72 2176.72 1507 2141.83 1507L1443.17 1507C1408.28 1507 1380 1478.72 1380 1443.83Z" fill="#544D6F" fill-rule="evenodd"/><text fill="#FFFFFF" font-family="Arial,Arial_MSFontService,sans-serif" font-weight="400" font-size="64" transform="matrix(1 0 0 1 1536.09 1264)">Contractor installs </text><text fill="#FFFFFF" font-family="Arial,Arial_MSFontService,sans-serif" font-weight="400" font-size="64" transform="matrix(1 0 0 1 1433.24 1341)">products with appropriate </text><text fill="#FFFFFF" font-family="Arial,Arial_MSFontService,sans-serif" font-weight="400" font-size="64" transform="matrix(1 0 0 1 1514.89 1418)">product certification</text><path d="M2463 1191.17C2463 1156.28 2491.28 1128 2526.17 1128L3224.83 1128C3259.72 1128 3288 1156.28 3288 1191.17L3288 1443.83C3288 1478.72 3259.72 1507 3224.83 1507L2526.17 1507C2491.28 1507 2463 1478.72 2463 1443.83Z" fill="#544D6F" fill-rule="evenodd"/><text fill="#FFFFFF" font-family="Arial,Arial_MSFontService,sans-serif" font-weight="400" font-size="64" transform="matrix(1 0 0 1 2651.14 1303)">Site inspections</text><text fill="#FFFFFF" font-family="Arial,Arial_MSFontService,sans-serif" font-weight="400" font-size="64" transform="matrix(1 0 0 1 2724.47 1380)">carried out</text><path d="M3525 1317.5 3917.5 946 4310 1317.5 3917.5 1689Z" fill="#544D6F" fill-rule="evenodd"/><text fill="#FFFFFF" font-family="Arial,Arial_MSFontService,sans-serif" font-weight="400" font-size="64" transform="matrix(1 0 0 1 3818.2 1187)">Check: </text><text fill="#FFFFFF" font-family="Arial,Arial_MSFontService,sans-serif" font-weight="400" font-size="64" transform="matrix(1 0 0 1 3764.92 1264)">Installation </text><text fill="#FFFFFF" font-family="Arial,Arial_MSFontService,sans-serif" font-weight="400" font-size="64" transform="matrix(1 0 0 1 3803.88 1341)">is within </text><text fill="#FFFFFF" font-family="Arial,Arial_MSFontService,sans-serif" font-weight="400" font-size="64" transform="matrix(1 0 0 1 3791.55 1418)">specified </text><text fill="#FFFFFF" font-family="Arial,Arial_MSFontService,sans-serif" font-weight="400" font-size="64" transform="matrix(1 0 0 1 3786.39 1495)">tolerance</text><path d="M4548 1191.17C4548 1156.28 4576.28 1128 4611.17 1128L5309.83 1128C5344.72 1128 5373 1156.28 5373 1191.17L5373 1443.83C5373 1478.72 5344.72 1507 5309.83 1507L4611.17 1507C4576.28 1507 4548 1478.72 4548 1443.83Z" fill="#544D6F" fill-rule="evenodd"/><text fill="#FFFFFF" font-family="Arial,Arial_MSFontService,sans-serif" font-weight="400" font-size="64" transform="matrix(1 0 0 1 4675.36 1264)">Warranties</text><text fill="#FFFFFF" font-family="Arial,Arial_MSFontService,sans-serif" font-weight="400" font-size="64" transform="matrix(1 0 0 1 5000.11 1264)">obtained</text><text fill="#FFFFFF" font-family="Arial,Arial_MSFontService,sans-serif" font-weight="400" font-size="64" transform="matrix(1 0 0 1 4699.37 1341)">from manufacturer</text><text fill="#FFFFFF" font-family="Arial,Arial_MSFontService,sans-serif" font-weight="400" font-size="64" transform="matrix(1 0 0 1 4756.09 1418)">and contractor</text><path d="M5631 1317.5C5631 1105.15 5803.15 933 6015.5 933 6227.85 933 6400 1105.15 6400 1317.5 6400 1529.85 6227.85 1702 6015.5 1702 5803.15 1702 5631 1529.85 5631 1317.5Z" fill="#544D6F" fill-rule="evenodd"/><text fill="#FFFFFF" font-family="Arial,Arial_MSFontService,sans-serif" font-weight="400" font-size="64" transform="matrix(1 0 0 1 5866.35 1187)">Contractor </text><text fill="#FFFFFF" font-family="Arial,Arial_MSFontService,sans-serif" font-weight="400" font-size="64" transform="matrix(1 0 0 1 5857.19 1264)">issues final </text><text fill="#FFFFFF" font-family="Arial,Arial_MSFontService,sans-serif" font-weight="400" font-size="64" transform="matrix(1 0 0 1 5908.75 1341)">As</text><text fill="#FFFFFF" font-family="Arial,Arial_MSFontService,sans-serif" font-weight="400" font-size="64" transform="matrix(1 0 0 1 5983.8 1341)">-</text><text fill="#FFFFFF" font-family="Arial,Arial_MSFontService,sans-serif" font-weight="400" font-size="64" transform="matrix(1 0 0 1 6005 1341)">built </text><text fill="#FFFFFF" font-family="Arial,Arial_MSFontService,sans-serif" font-weight="400" font-size="64" transform="matrix(1 0 0 1 5821.94 1418)">information to </text><text fill="#FFFFFF" font-family="Arial,Arial_MSFontService,sans-serif" font-weight="400" font-size="64" transform="matrix(1 0 0 1 5940.83 1495)">client</text><path d="M-2071.5 1308.19-1864.8 1308.19-1864.8 1328.81-2071.5 1328.81ZM-2071.5 1339.13C-2082.89 1339.13-2092.12 1329.89-2092.12 1318.5-2092.12 1307.11-2082.89 1297.88-2071.5 1297.88-2060.11 1297.88-2050.88 1307.11-2050.88 1318.5-2050.88 1329.89-2060.11 1339.13-2071.5 1339.13ZM-1875.11 1266.94-1813.23 1318.5-1875.11 1370.06Z" fill="#544D6F"/><path d="M-988.5 1308.19-781.795 1308.19-781.795 1328.81-988.5 1328.81ZM-988.5 1339.13C-999.891 1339.13-1009.13 1329.89-1009.13 1318.5-1009.13 1307.11-999.891 1297.88-988.5 1297.88-977.109 1297.88-967.875 1307.11-967.875 1318.5-967.875 1329.89-977.109 1339.13-988.5 1339.13ZM-792.108 1266.94-730.233 1318.5-792.108 1370.06Z" fill="#544D6F"/><path d="M1121.5 1308.19 1328.2 1308.19 1328.2 1328.81 1121.5 1328.81ZM1121.5 1339.13C1110.11 1339.13 1100.88 1329.89 1100.88 1318.5 1100.88 1307.11 1110.11 1297.88 1121.5 1297.88 1132.89 1297.88 1142.13 1307.11 1142.13 1318.5 1142.13 1329.89 1132.89 1339.13 1121.5 1339.13ZM1317.89 1266.94 1379.77 1318.5 1317.89 1370.06Z" fill="#544D6F"/><path d="M2205.5 1308.19 2412.2 1308.19 2412.2 1328.81 2205.5 1328.81ZM2205.5 1339.13C2194.11 1339.13 2184.88 1329.89 2184.88 1318.5 2184.88 1307.11 2194.11 1297.88 2205.5 1297.88 2216.89 1297.88 2226.12 1307.11 2226.12 1318.5 2226.12 1329.89 2216.89 1339.13 2205.5 1339.13ZM2401.89 1266.94 2463.77 1318.5 2401.89 1370.06Z" fill="#544D6F"/><path d="M3288.5 1308.19 3474.28 1308.19 3474.28 1328.81 3288.5 1328.81ZM3288.5 1339.13C3277.11 1339.13 3267.88 1329.89 3267.88 1318.5 3267.88 1307.11 3277.11 1297.88 3288.5 1297.88 3299.89 1297.88 3309.13 1307.11 3309.13 1318.5 3309.13 1329.89 3299.89 1339.13 3288.5 1339.13ZM3463.97 1266.94 3525.84 1318.5 3463.97 1370.06Z" fill="#544D6F"/><path d="M4310.5 1308.19 4496.28 1308.19 4496.28 1328.81 4310.5 1328.81ZM4310.5 1339.13C4299.11 1339.13 4289.88 1329.89 4289.88 1318.5 4289.88 1307.11 4299.11 1297.88 4310.5 1297.88 4321.89 1297.88 4331.12 1307.11 4331.12 1318.5 4331.12 1329.89 4321.89 1339.13 4310.5 1339.13ZM4485.97 1266.94 4547.84 1318.5 4485.97 1370.06Z" fill="#544D6F"/><rect x="-2841" y="2173" width="9241" height="744" fill="url(#fill1)"/><path d="M-1391.19 1507.5-1391.19 2122.59-1411.81 2122.59-1411.81 1507.5ZM-1422.12 1507.5C-1422.12 1496.11-1412.89 1486.87-1401.5 1486.87-1390.11 1486.87-1380.88 1496.11-1380.88 1507.5-1380.88 1518.89-1390.11 1528.12-1401.5 1528.12-1412.89 1528.12-1422.12 1518.89-1422.12 1507.5ZM-1349.94 2112.28-1401.5 2174.15-1453.06 2112.28Z" fill="#544D6F"/><path d="M-307.188 1507.5-307.187 2122.59-327.812 2122.59-327.813 1507.5ZM-338.125 1507.5C-338.125 1496.11-328.891 1486.87-317.5 1486.87-306.109 1486.87-296.875 1496.11-296.875 1507.5-296.875 1518.89-306.109 1528.12-317.5 1528.12-328.891 1528.12-338.125 1518.89-338.125 1507.5ZM-265.937 2112.28-317.5 2174.15-369.062 2112.28Z" fill="#544D6F"/><path d="M1802.81 1507.5 1802.81 2122.59 1782.19 2122.59 1782.19 1507.5ZM1771.88 1507.5C1771.88 1496.11 1781.11 1486.87 1792.5 1486.87 1803.89 1486.87 1813.13 1496.11 1813.13 1507.5 1813.13 1518.89 1803.89 1528.12 1792.5 1528.12 1781.11 1528.12 1771.88 1518.89 1771.88 1507.5ZM1844.06 2112.28 1792.5 2174.15 1740.94 2112.28Z" fill="#544D6F"/><path d="M2885.81 1507.5 2885.81 2122.59 2865.19 2122.59 2865.19 1507.5ZM2854.88 1507.5C2854.88 1496.11 2864.11 1486.87 2875.5 1486.87 2886.89 1486.87 2896.12 1496.11 2896.12 1507.5 2896.12 1518.89 2886.89 1528.12 2875.5 1528.12 2864.11 1528.12 2854.88 1518.89 2854.88 1507.5ZM2927.06 2112.28 2875.5 2174.15 2823.94 2112.28Z" fill="#544D6F"/><path d="M4970.81 1507.5 4970.81 2122.59 4950.19 2122.59 4950.19 1507.5ZM4939.88 1507.5C4939.88 1496.11 4949.11 1486.87 4960.5 1486.87 4971.89 1486.87 4981.12 1496.11 4981.12 1507.5 4981.12 1518.89 4971.89 1528.12 4960.5 1528.12 4949.11 1528.12 4939.88 1518.89 4939.88 1507.5ZM5012.06 2112.28 4960.5 2174.15 4908.94 2112.28Z" fill="#544D6F"/><path d="M10.3125-7.68796e-06 10.3128 432.533-10.3122 432.533-10.3125 7.68796e-06ZM-20.625 1.53759e-05C-20.625-11.3909-11.3909-20.625-1.53759e-05-20.625 11.3909-20.625 20.625-11.3909 20.625-1.53759e-05 20.625 11.3909 11.3909 20.625 1.53759e-05 20.625-11.3909 20.625-20.625 11.3909-20.625 1.53759e-05ZM51.5628 422.22 0.000360892 484.095-51.5622 422.22Z" fill="#544D6F" transform="matrix(-1 0 0 1 3913.5 1689.5)"/><text font-family="Arial,Arial_MSFontService,sans-serif" font-weight="400" font-size="83" transform="matrix(1 0 0 1 -1354.28 1770)">Design </text><text font-family="Arial,Arial_MSFontService,sans-serif" font-weight="400" font-size="83" transform="matrix(1 0 0 1 -1354.28 1869)">information </text><text font-family="Arial,Arial_MSFontService,sans-serif" font-weight="400" font-size="83" transform="matrix(1 0 0 1 -1354.28 1968)">recorded</text><text font-family="Arial,Arial_MSFontService,sans-serif" font-weight="400" font-size="83" transform="matrix(1 0 0 1 -273.008 1821)">Drawings </text><text font-family="Arial,Arial_MSFontService,sans-serif" font-weight="400" font-size="83" transform="matrix(1 0 0 1 -273.008 1920)">referenced</text><text font-family="Arial,Arial_MSFontService,sans-serif" font-weight="400" font-size="83" transform="matrix(1 0 0 1 782.719 1887)">BIM model </text><text font-family="Arial,Arial_MSFontService,sans-serif" font-weight="400" font-size="83" transform="matrix(1 0 0 1 782.719 1986)">issued to </text><text font-family="Arial,Arial_MSFontService,sans-serif" font-weight="400" font-size="83" transform="matrix(1 0 0 1 782.719 2085)">contractor</text><text font-family="Arial,Arial_MSFontService,sans-serif" font-weight="400" font-size="83" transform="matrix(1 0 0 1 1833.09 1759)">Product </text><text font-family="Arial,Arial_MSFontService,sans-serif" font-weight="400" font-size="83" transform="matrix(1 0 0 1 1833.09 1858)">certification </text><text font-family="Arial,Arial_MSFontService,sans-serif" font-weight="400" font-size="83" transform="matrix(1 0 0 1 1833.09 1957)">recorded</text><text font-family="Arial,Arial_MSFontService,sans-serif" font-weight="400" font-size="83" transform="matrix(1 0 0 1 2908.44 1759)">Inspection </text><text font-family="Arial,Arial_MSFontService,sans-serif" font-weight="400" font-size="83" transform="matrix(1 0 0 1 2908.44 1858)">reports </text><text font-family="Arial,Arial_MSFontService,sans-serif" font-weight="400" font-size="83" transform="matrix(1 0 0 1 2908.44 1957)">recorded</text><text font-family="Arial,Arial_MSFontService,sans-serif" font-weight="400" font-size="83" transform="matrix(1 0 0 1 3963.68 1716)">If</text><text font-family="Arial,Arial_MSFontService,sans-serif" font-weight="400" font-size="83" transform="matrix(1 0 0 1 4032.43 1716)">no:</text><text font-family="Arial,Arial_MSFontService,sans-serif" font-weight="400" font-size="83" transform="matrix(1 0 0 1 3963.68 1848)">Tolerances</text><text font-family="Arial,Arial_MSFontService,sans-serif" font-weight="400" font-size="83" transform="matrix(1 0 0 1 3963.68 1947)">verified / </text><text font-family="Arial,Arial_MSFontService,sans-serif" font-weight="400" font-size="83" transform="matrix(1 0 0 1 3963.68 2046)">recorded</text><text font-family="Arial,Arial_MSFontService,sans-serif" font-weight="400" font-size="83" transform="matrix(1 0 0 1 4993.3 1812)">Warranties </text><text font-family="Arial,Arial_MSFontService,sans-serif" font-weight="400" font-size="83" transform="matrix(1 0 0 1 4993.3 1911)">recorded</text><text font-family="Arial,Arial_MSFontService,sans-serif" font-weight="400" font-size="83" transform="matrix(1 0 0 1 6064.59 1880)">BIM model </text><text font-family="Arial,Arial_MSFontService,sans-serif" font-weight="400" font-size="83" transform="matrix(1 0 0 1 6064.59 1979)">handed over </text><text font-family="Arial,Arial_MSFontService,sans-serif" font-weight="400" font-size="83" transform="matrix(1 0 0 1 6064.59 2078)">to client</text><text font-family="Arial,Arial_MSFontService,sans-serif" font-weight="400" font-size="83" transform="matrix(1 0 0 1 -1619.3 2475)">Preliminary </text><text font-family="Arial,Arial_MSFontService,sans-serif" font-weight="400" font-size="83" transform="matrix(1 0 0 1 -1529.93 2574)">Design</text><text font-family="Arial,Arial_MSFontService,sans-serif" font-weight="400" font-size="83" transform="matrix(1 0 0 1 -1598.68 2673)">BIM Model</text><text font-family="Arial,Arial_MSFontService,sans-serif" font-weight="400" font-size="83" transform="matrix(1 0 0 1 -460.41 2475)">Defined</text><text font-family="Arial,Arial_MSFontService,sans-serif" font-weight="400" font-size="83" transform="matrix(1 0 0 1 -446.66 2574)">Design</text><text font-family="Arial,Arial_MSFontService,sans-serif" font-weight="400" font-size="83" transform="matrix(1 0 0 1 -515.41 2673)">BIM Model</text><text fill="#FFFFFF" font-family="Arial,Arial_MSFontService,sans-serif" font-weight="400" font-size="83" transform="matrix(1 0 0 1 1540.09 2475)">Substantiated</text><text fill="#FFFFFF" font-family="Arial,Arial_MSFontService,sans-serif" font-weight="400" font-size="83" transform="matrix(1 0 0 1 1560.71 2574)">Construction</text><text fill="#FFFFFF" font-family="Arial,Arial_MSFontService,sans-serif" font-weight="400" font-size="83" transform="matrix(1 0 0 1 1595.09 2673)">BIM</text><text fill="#FFFFFF" font-family="Arial,Arial_MSFontService,sans-serif" font-weight="400" font-size="83" transform="matrix(1 0 0 1 1764.67 2673)">Mode</text><text fill="#FFFFFF" font-family="Arial,Arial_MSFontService,sans-serif" font-weight="400" font-size="83" transform="matrix(1 0 0 1 1970.92 2673)">l</text><text fill="#FFFFFF" font-family="Arial,Arial_MSFontService,sans-serif" font-weight="400" font-size="83" transform="matrix(1 0 0 1 2706.63 2475)">Validated</text><text fill="#FFFFFF" font-family="Arial,Arial_MSFontService,sans-serif" font-weight="400" font-size="83" transform="matrix(1 0 0 1 2643.98 2574)">Construction</text><text fill="#FFFFFF" font-family="Arial,Arial_MSFontService,sans-serif" font-weight="400" font-size="83" transform="matrix(1 0 0 1 2678.35 2673)">BIM</text><text fill="#FFFFFF" font-family="Arial,Arial_MSFontService,sans-serif" font-weight="400" font-size="83" transform="matrix(1 0 0 1 2847.94 2673)">Mode</text><text fill="#FFFFFF" font-family="Arial,Arial_MSFontService,sans-serif" font-weight="400" font-size="83" transform="matrix(1 0 0 1 3054.19 2673)">l</text><text fill="#FFFFFF" font-family="Arial,Arial_MSFontService,sans-serif" font-weight="400" font-size="83" transform="matrix(1 0 0 1 3779.43 2475)">Assured</text><text fill="#FFFFFF" font-family="Arial,Arial_MSFontService,sans-serif" font-weight="400" font-size="83" transform="matrix(1 0 0 1 3699.23 2574)">Construction</text><text fill="#FFFFFF" font-family="Arial,Arial_MSFontService,sans-serif" font-weight="400" font-size="83" transform="matrix(1 0 0 1 3733.6 2673)">BIM</text><text fill="#FFFFFF" font-family="Arial,Arial_MSFontService,sans-serif" font-weight="400" font-size="83" transform="matrix(1 0 0 1 3903.18 2673)">Mode</text><text fill="#FFFFFF" font-family="Arial,Arial_MSFontService,sans-serif" font-weight="400" font-size="83" transform="matrix(1 0 0 1 4109.44 2673)">l</text><text fill="#FFFFFF" font-family="Arial,Arial_MSFontService,sans-serif" font-weight="400" font-size="83" transform="matrix(1 0 0 1 4822.8 2475)">Verified</text><text fill="#FFFFFF" font-family="Arial,Arial_MSFontService,sans-serif" font-weight="400" font-size="83" transform="matrix(1 0 0 1 4728.84 2574)">Construction</text><text fill="#FFFFFF" font-family="Arial,Arial_MSFontService,sans-serif" font-weight="400" font-size="83" transform="matrix(1 0 0 1 4763.22 2673)">BIM</text><text fill="#FFFFFF" font-family="Arial,Arial_MSFontService,sans-serif" font-weight="400" font-size="83" transform="matrix(1 0 0 1 4932.8 2673)">Mode</text><text fill="#FFFFFF" font-family="Arial,Arial_MSFontService,sans-serif" font-weight="400" font-size="83" transform="matrix(1 0 0 1 5139.05 2673)">l</text><text fill="#FFFFFF" font-family="Arial,Arial_MSFontService,sans-serif" font-weight="700" font-size="83" transform="matrix(1 0 0 1 5850.96 2525)">As</text><text fill="#FFFFFF" font-family="Arial,Arial_MSFontService,sans-serif" font-weight="700" font-size="83" transform="matrix(1 0 0 1 5956.38 2525)">-</text><text fill="#FFFFFF" font-family="Arial,Arial_MSFontService,sans-serif" font-weight="700" font-size="83" transform="matrix(1 0 0 1 5983.88 2525)">Built</text><text fill="#FFFFFF" font-family="Arial,Arial_MSFontService,sans-serif" font-weight="700" font-size="83" transform="matrix(1 0 0 1 5802.83 2624)">BIM Mode</text><text fill="#FFFFFF" font-family="Arial,Arial_MSFontService,sans-serif" font-weight="700" font-size="83" transform="matrix(1 0 0 1 6192.42 2624)">l</text><text font-family="Arial,Arial_MSFontService,sans-serif" font-weight="700" font-size="83" transform="matrix(1 0 0 1 480.257 2475)">Construction</text><text font-family="Arial,Arial_MSFontService,sans-serif" font-weight="700" font-size="83" transform="matrix(1 0 0 1 631.507 2574)">Issue</text><text font-family="Arial,Arial_MSFontService,sans-serif" font-weight="700" font-size="83" transform="matrix(1 0 0 1 530.673 2673)">BIM Model</text></g></svg>